<?xml version="1.0" encoding="UTF-8" standalone="no"?><!DOCTYPE svg PUBLIC "-//W3C//DTD SVG 1.1//EN" "http://www.w3.org/Graphics/SVG/1.1/DTD/svg11.dtd"><!-- Generated by graphviz version 2.40.1 (20161225.0304)
 --><!-- Title: G Pages: 1 --><svg xmlns="http://www.w3.org/2000/svg" xmlns:xlink="http://www.w3.org/1999/xlink" width="1361pt" height="319pt" viewBox="0.00 0.00 1361.47 318.60">
<g id="graph0" class="graph" transform="scale(1 1) rotate(0) translate(4 314.6)">
<title>G</title>
<polygon fill="#ffffff" stroke="transparent" points="-4,4 -4,-314.6 1357.4734,-314.6 1357.4734,4 -4,4"/>
<g id="clust1" class="cluster">
<title>cluster_888f8a29</title>
<polygon fill="none" stroke="#000000" stroke-dasharray="1,5" points="669,0 669,-64.8 758.1648,-64.8 758.1648,0 669,0"/>
<text text-anchor="middle" x="713.5824" y="-48.2" font-family="Times,serif" font-size="14.00" fill="#000000">File: __main__</text>
</g>
<g id="clust2" class="cluster">
<title>cluster_11b11f95</title>
<polygon fill="none" stroke="#000000" stroke-dasharray="1,5" points="901,-68 901,-132.8 1055.8872,-132.8 1055.8872,-68 901,-68"/>
<text text-anchor="middle" x="978.4436" y="-116.2" font-family="Times,serif" font-size="14.00" fill="#000000">File: charts_52w</text>
</g>
<g id="clust3" class="cluster">
<title>cluster_1cfa38e5</title>
<polygon fill="none" stroke="#000000" stroke-dasharray="1,5" points="0,-137 0,-310.6 566.0288,-310.6 566.0288,-137 0,-137"/>
<text text-anchor="middle" x="283.0144" y="-294" font-family="Times,serif" font-size="14.00" fill="#000000">File: db_ops</text>
</g>
<g id="clust4" class="cluster">
<title>cluster_1cbd11f7</title>
<polygon fill="none" stroke="#000000" stroke-dasharray="1,5" points="2,-139 2,-283.8 476.0232,-283.8 476.0232,-139 2,-139"/>
<text text-anchor="middle" x="239.0116" y="-267.2" font-family="Times,serif" font-size="14.00" fill="#000000">Class: DataStore</text>
</g>
<g id="clust5" class="cluster">
<title>cluster_6d94f294</title>
<polygon fill="none" stroke="#000000" stroke-dasharray="1,5" points="161,-68 161,-132.8 403.479,-132.8 403.479,-68 161,-68"/>
<text text-anchor="middle" x="282.2395" y="-116.2" font-family="Times,serif" font-size="14.00" fill="#000000">File: dropdowns</text>
</g>
<g id="clust6" class="cluster">
<title>cluster_36ac7d7d</title>
<polygon fill="none" stroke="#000000" stroke-dasharray="1,5" points="1099,-192 1099,-256.8 1353.4734,-256.8 1353.4734,-192 1099,-192"/>
<text text-anchor="middle" x="1226.2367" y="-240.2" font-family="Times,serif" font-size="14.00" fill="#000000">File: intra_sector</text>
</g>
<g id="clust7" class="cluster">
<title>cluster_f48522ad</title>
<polygon fill="none" stroke="#000000" stroke-dasharray="1,5" points="934,0 934,-64.8 1022.0288,-64.8 1022.0288,0 934,0"/>
<text text-anchor="middle" x="978.0144" y="-48.2" font-family="Times,serif" font-size="14.00" fill="#000000">File: layout</text>
</g>
<g id="clust8" class="cluster">
<title>cluster_60f6dc9f</title>
<polygon fill="none" stroke="#000000" stroke-dasharray="1,5" points="1169,-68 1169,-132.8 1283.8044,-132.8 1283.8044,-68 1169,-68"/>
<text text-anchor="middle" x="1226.4022" y="-116.2" font-family="Times,serif" font-size="14.00" fill="#000000">File: main_carousel</text>
</g>
<g id="clust9" class="cluster">
<title>cluster_7a24a56a</title>
<polygon fill="none" stroke="#000000" stroke-dasharray="1,5" points="231,0 231,-64.8 333.782,-64.8 333.782,0 231,0"/>
<text text-anchor="middle" x="282.391" y="-48.2" font-family="Times,serif" font-size="14.00" fill="#000000">File: price_card</text>
</g>
<g id="clust10" class="cluster">
<title>cluster_e9bb3293</title>
<polygon fill="none" stroke="#000000" stroke-dasharray="1,5" points="861,-172 861,-276.8 1094.8086,-276.8 1094.8086,-172 861,-172"/>
<text text-anchor="middle" x="977.9043" y="-260.2" font-family="Times,serif" font-size="14.00" fill="#000000">File: price_chart</text>
</g>
<g id="clust11" class="cluster">
<title>cluster_0766db21</title>
<polygon fill="none" stroke="#000000" stroke-dasharray="1,5" points="634,-68 634,-132.8 793.7076,-132.8 793.7076,-68 634,-68"/>
<text text-anchor="middle" x="713.8538" y="-116.2" font-family="Times,serif" font-size="14.00" fill="#000000">File: run</text>
</g>
<g id="clust12" class="cluster">
<title>cluster_f6b3f4fa</title>
<polygon fill="none" stroke="#000000" stroke-dasharray="1,5" points="570,-172 570,-276.8 857.8128,-276.8 857.8128,-172 570,-172"/>
<text text-anchor="middle" x="713.9064" y="-260.2" font-family="Times,serif" font-size="14.00" fill="#000000">File: update</text>
</g>
<!-- node_388f536b -->
<g id="node1" class="node">
<title>node_388f536b</title>
<path fill="#966f33" stroke="#000000" d="M743.6112,-38C743.6112,-38 683.5536,-38 683.5536,-38 677.5536,-38 671.5536,-32 671.5536,-26 671.5536,-26 671.5536,-14 671.5536,-14 671.5536,-8 677.5536,-2 683.5536,-2 683.5536,-2 743.6112,-2 743.6112,-2 749.6112,-2 755.6112,-8 755.6112,-14 755.6112,-14 755.6112,-26 755.6112,-26 755.6112,-32 749.6112,-38 743.6112,-38"/>
<text text-anchor="middle" x="713.5824" y="-15.8" font-family="Times,serif" font-size="14.00" fill="#000000">0: (global)()</text>
</g>
<!-- node_6cda2e4b -->
<g id="node23" class="node">
<title>node_6cda2e4b</title>
<path fill="#6db33f" stroke="#000000" d="M779.562,-106C779.562,-106 736.1456,-106 736.1456,-106 730.1456,-106 724.1456,-100 724.1456,-94 724.1456,-94 724.1456,-82 724.1456,-82 724.1456,-76 730.1456,-70 736.1456,-70 736.1456,-70 779.562,-70 779.562,-70 785.562,-70 791.562,-76 791.562,-82 791.562,-82 791.562,-94 791.562,-94 791.562,-100 785.562,-106 779.562,-106"/>
<text text-anchor="middle" x="757.8538" y="-83.8" font-family="Times,serif" font-size="14.00" fill="#000000">7: main()</text>
</g>
<!-- node_388f536b&#45;&gt;node_6cda2e4b -->
<g id="edge1" class="edge">
<title>node_388f536b-&gt;node_6cda2e4b</title>
<path fill="none" stroke="#009e73" stroke-width="2" d="M739.7984,-38.2228C739.7984,-38.2228 739.7984,-59.7269 739.7984,-59.7269"/>
<polygon fill="#009e73" stroke="#009e73" stroke-width="2" points="736.2985,-59.7269 739.7984,-69.7269 743.2985,-59.727 736.2985,-59.7269"/>
</g>
<!-- node_f7303ff1 -->
<g id="node2" class="node">
<title>node_f7303ff1</title>
<path fill="#6db33f" stroke="#000000" d="M1041.8308,-106C1041.8308,-106 915.0564,-106 915.0564,-106 909.0564,-106 903.0564,-100 903.0564,-94 903.0564,-94 903.0564,-82 903.0564,-82 903.0564,-76 909.0564,-70 915.0564,-70 915.0564,-70 1041.8308,-70 1041.8308,-70 1047.8308,-70 1053.8308,-76 1053.8308,-82 1053.8308,-82 1053.8308,-94 1053.8308,-94 1053.8308,-100 1047.8308,-106 1041.8308,-106"/>
<text text-anchor="middle" x="978.4436" y="-83.8" font-family="Times,serif" font-size="14.00" fill="#000000">11: carousel_52_week()</text>
</g>
<!-- node_e09294e3 -->
<g id="node3" class="node">
<title>node_e09294e3</title>
<path fill="#966f33" stroke="#000000" d="M552.0432,-229C552.0432,-229 491.9856,-229 491.9856,-229 485.9856,-229 479.9856,-223 479.9856,-217 479.9856,-217 479.9856,-205 479.9856,-205 479.9856,-199 485.9856,-193 491.9856,-193 491.9856,-193 552.0432,-193 552.0432,-193 558.0432,-193 564.0432,-199 564.0432,-205 564.0432,-205 564.0432,-217 564.0432,-217 564.0432,-223 558.0432,-229 552.0432,-229"/>
<text text-anchor="middle" x="522.0144" y="-206.8" font-family="Times,serif" font-size="14.00" fill="#000000">0: (global)()</text>
</g>
<!-- node_018655b4 -->
<g id="node4" class="node">
<title>node_018655b4</title>
<path fill="#6db33f" stroke="#000000" d="M280.5762,-177C280.5762,-177 210.8074,-177 210.8074,-177 204.8074,-177 198.8074,-171 198.8074,-165 198.8074,-165 198.8074,-153 198.8074,-153 198.8074,-147 204.8074,-141 210.8074,-141 210.8074,-141 280.5762,-141 280.5762,-141 286.5762,-141 292.5762,-147 292.5762,-153 292.5762,-153 292.5762,-165 292.5762,-165 292.5762,-171 286.5762,-177 280.5762,-177"/>
<text text-anchor="middle" x="245.6918" y="-154.8" font-family="Times,serif" font-size="14.00" fill="#000000">35: __init__()</text>
</g>
<!-- node_e09294e3&#45;&gt;node_018655b4 -->
<g id="edge2" class="edge">
<title>node_e09294e3-&gt;node_018655b4</title>
<path fill="none" stroke="#009e73" stroke-width="2" d="M522.0144,-192.7181C522.0144,-177.0522 522.0144,-157 522.0144,-157 522.0144,-157 302.5662,-157 302.5662,-157"/>
<polygon fill="#009e73" stroke="#009e73" stroke-width="2" points="302.5662,-153.5001 292.5662,-157 302.5661,-160.5001 302.5662,-153.5001"/>
</g>
<!-- node_1ec65d42 -->
<g id="node6" class="node">
<title>node_1ec65d42</title>
<path fill="#6db33f" stroke="#000000" d="M447.6648,-217C447.6648,-217 352.1116,-217 352.1116,-217 346.1116,-217 340.1116,-211 340.1116,-205 340.1116,-205 340.1116,-193 340.1116,-193 340.1116,-187 346.1116,-181 352.1116,-181 352.1116,-181 447.6648,-181 447.6648,-181 453.6648,-181 459.6648,-187 459.6648,-193 459.6648,-193 459.6648,-205 459.6648,-205 459.6648,-211 453.6648,-217 447.6648,-217"/>
<text text-anchor="middle" x="399.8882" y="-194.8" font-family="Times,serif" font-size="14.00" fill="#000000">64: create_tables()</text>
</g>
<!-- node_e09294e3&#45;&gt;node_1ec65d42 -->
<g id="edge3" class="edge">
<title>node_e09294e3-&gt;node_1ec65d42</title>
<path fill="none" stroke="#009e73" stroke-width="2" d="M479.9855,-205C479.9855,-205 469.9087,-205 469.9087,-205"/>
<polygon fill="#009e73" stroke="#009e73" stroke-width="2" points="469.9088,-201.5001 459.9087,-205 469.9087,-208.5001 469.9088,-201.5001"/>
</g>
<!-- node_22de321e -->
<g id="node7" class="node">
<title>node_22de321e</title>
<path fill="#6db33f" stroke="#000000" d="M123.2242,-177C123.2242,-177 45.9252,-177 45.9252,-177 39.9252,-177 33.9252,-171 33.9252,-165 33.9252,-165 33.9252,-153 33.9252,-153 33.9252,-147 39.9252,-141 45.9252,-141 45.9252,-141 123.2242,-141 123.2242,-141 129.2242,-141 135.2242,-147 135.2242,-153 135.2242,-153 135.2242,-165 135.2242,-165 135.2242,-171 129.2242,-177 123.2242,-177"/>
<text text-anchor="middle" x="84.5747" y="-154.8" font-family="Times,serif" font-size="14.00" fill="#000000">211: fill_ohlc()</text>
</g>
<!-- node_e09294e3&#45;&gt;node_22de321e -->
<g id="edge4" class="edge">
<title>node_e09294e3-&gt;node_22de321e</title>
<path fill="none" stroke="#009e73" stroke-width="2" d="M543.0216,-192.7663C543.0216,-166.9906 543.0216,-123 543.0216,-123 543.0216,-123 84.5747,-123 84.5747,-123 84.5747,-123 84.5747,-130.5782 84.5747,-130.5782"/>
<polygon fill="#009e73" stroke="#009e73" stroke-width="2" points="81.0748,-130.5781 84.5747,-140.5782 88.0748,-130.5782 81.0748,-130.5781"/>
</g>
<!-- node_5f800027 -->
<g id="node8" class="node">
<title>node_5f800027</title>
<path fill="#cccccc" stroke="#000000" d="M153.7004,-257C153.7004,-257 16.0998,-257 16.0998,-257 10.0998,-257 4.0998,-251 4.0998,-245 4.0998,-245 4.0998,-233 4.0998,-233 4.0998,-227 10.0998,-221 16.0998,-221 16.0998,-221 153.7004,-221 153.7004,-221 159.7004,-221 165.7004,-227 165.7004,-233 165.7004,-233 165.7004,-245 165.7004,-245 165.7004,-251 159.7004,-257 153.7004,-257"/>
<text text-anchor="middle" x="84.9001" y="-234.8" font-family="Times,serif" font-size="14.00" fill="#000000">299: initiate_tickers_obj()</text>
</g>
<!-- node_e09294e3&#45;&gt;node_5f800027 -->
<g id="edge5" class="edge">
<title>node_e09294e3-&gt;node_5f800027</title>
<path fill="none" stroke="#009e73" stroke-width="2" d="M522.0144,-229.1686C522.0144,-248.0898 522.0144,-275 522.0144,-275 522.0144,-275 84.9001,-275 84.9001,-275 84.9001,-275 84.9001,-267.4218 84.9001,-267.4218"/>
<polygon fill="#009e73" stroke="#009e73" stroke-width="2" points="88.4002,-267.4218 84.9001,-257.4218 81.4002,-267.4219 88.4002,-267.4218"/>
</g>
<!-- node_f3af011d -->
<g id="node9" class="node">
<title>node_f3af011d</title>
<path fill="#6db33f" stroke="#000000" d="M310.3527,-257C310.3527,-257 180.8823,-257 180.8823,-257 174.8823,-257 168.8823,-251 168.8823,-245 168.8823,-245 168.8823,-233 168.8823,-233 168.8823,-227 174.8823,-221 180.8823,-221 180.8823,-221 310.3527,-221 310.3527,-221 316.3527,-221 322.3527,-227 322.3527,-233 322.3527,-233 322.3527,-245 322.3527,-245 322.3527,-251 316.3527,-257 310.3527,-257"/>
<text text-anchor="middle" x="245.6175" y="-234.8" font-family="Times,serif" font-size="14.00" fill="#000000">131: insert_ticker_info()</text>
</g>
<!-- node_e09294e3&#45;&gt;node_f3af011d -->
<g id="edge6" class="edge">
<title>node_e09294e3-&gt;node_f3af011d</title>
<path fill="none" stroke="#009e73" stroke-width="2" d="M501.0072,-192.8196C501.0072,-179.9618 501.0072,-165 501.0072,-165 501.0072,-165 317.7939,-165 317.7939,-165 317.7939,-165 317.7939,-210.7079 317.7939,-210.7079"/>
<polygon fill="#009e73" stroke="#009e73" stroke-width="2" points="314.294,-210.7078 317.7939,-220.7079 321.294,-210.7079 314.294,-210.7078"/>
</g>
<!-- node_692fcc79 -->
<g id="node10" class="node">
<title>node_692fcc79</title>
<path fill="#6db33f" stroke="#000000" d="M462.0348,-257C462.0348,-257 338.9884,-257 338.9884,-257 332.9884,-257 326.9884,-251 326.9884,-245 326.9884,-245 326.9884,-233 326.9884,-233 326.9884,-227 332.9884,-221 338.9884,-221 338.9884,-221 462.0348,-221 462.0348,-221 468.0348,-221 474.0348,-227 474.0348,-233 474.0348,-233 474.0348,-245 474.0348,-245 474.0348,-251 468.0348,-257 462.0348,-257"/>
<text text-anchor="middle" x="400.5116" y="-234.8" font-family="Times,serif" font-size="14.00" fill="#000000">284: load_main_table()</text>
</g>
<!-- node_e09294e3&#45;&gt;node_692fcc79 -->
<g id="edge7" class="edge">
<title>node_e09294e3-&gt;node_692fcc79</title>
<path fill="none" stroke="#009e73" stroke-width="2" d="M479.8596,-225C479.8596,-225 479.2765,-225 479.2765,-225"/>
<polygon fill="#009e73" stroke="#009e73" stroke-width="2" points="484.0288,-221.5002 474.0287,-225 484.0286,-228.5002 484.0288,-221.5002"/>
</g>
<!-- node_6fbb1e8d -->
<g id="node5" class="node">
<title>node_6fbb1e8d</title>
<path fill="#6db33f" stroke="#000000" d="M301.5297,-217C301.5297,-217 189.8231,-217 189.8231,-217 183.8231,-217 177.8231,-211 177.8231,-205 177.8231,-205 177.8231,-193 177.8231,-193 177.8231,-187 183.8231,-181 189.8231,-181 189.8231,-181 301.5297,-181 301.5297,-181 307.5297,-181 313.5297,-187 313.5297,-193 313.5297,-193 313.5297,-205 313.5297,-205 313.5297,-211 307.5297,-217 301.5297,-217"/>
<text text-anchor="middle" x="245.6764" y="-194.8" font-family="Times,serif" font-size="14.00" fill="#000000">316: add_new_ohlc()</text>
</g>
<!-- node_cb52e8ff -->
<g id="node11" class="node">
<title>node_cb52e8ff</title>
<path fill="#6db33f" stroke="#000000" d="M140.1969,-217C140.1969,-217 27.9343,-217 27.9343,-217 21.9343,-217 15.9343,-211 15.9343,-205 15.9343,-205 15.9343,-193 15.9343,-193 15.9343,-187 21.9343,-181 27.9343,-181 27.9343,-181 140.1969,-181 140.1969,-181 146.1969,-181 152.1969,-187 152.1969,-193 152.1969,-193 152.1969,-205 152.1969,-205 152.1969,-211 146.1969,-217 140.1969,-217"/>
<text text-anchor="middle" x="84.0656" y="-194.8" font-family="Times,serif" font-size="14.00" fill="#000000">49: scrape_symbols()</text>
</g>
<!-- node_5f800027&#45;&gt;node_cb52e8ff -->
<g id="edge8" class="edge">
<title>node_5f800027-&gt;node_cb52e8ff</title>
<path fill="none" stroke="#cc79a7" stroke-width="2" d="M84.0656,-220.8726C84.0656,-220.8726 84.0656,-220.5243 84.0656,-220.5243"/>
<polygon fill="#cc79a7" stroke="#cc79a7" stroke-width="2" points="87.5659,-227.3901 84.0656,-217.3902 80.5659,-227.3903 87.5659,-227.3901"/>
</g>
<!-- node_6e93b43f -->
<g id="node12" class="node">
<title>node_6e93b43f</title>
<path fill="#6db33f" stroke="#000000" d="M268.7195,-106C268.7195,-106 174.7595,-106 174.7595,-106 168.7595,-106 162.7595,-100 162.7595,-94 162.7595,-94 162.7595,-82 162.7595,-82 162.7595,-76 168.7595,-70 174.7595,-70 174.7595,-70 268.7195,-70 268.7195,-70 274.7195,-70 280.7195,-76 280.7195,-82 280.7195,-82 280.7195,-94 280.7195,-94 280.7195,-100 274.7195,-106 268.7195,-106"/>
<text text-anchor="middle" x="221.7395" y="-83.8" font-family="Times,serif" font-size="14.00" fill="#000000">24: dropdown_1()</text>
</g>
<!-- node_21e7aaaf -->
<g id="node13" class="node">
<title>node_21e7aaaf</title>
<path fill="#6db33f" stroke="#000000" d="M389.7195,-106C389.7195,-106 295.7595,-106 295.7595,-106 289.7595,-106 283.7595,-100 283.7595,-94 283.7595,-94 283.7595,-82 283.7595,-82 283.7595,-76 289.7595,-70 295.7595,-70 295.7595,-70 389.7195,-70 389.7195,-70 395.7195,-70 401.7195,-76 401.7195,-82 401.7195,-82 401.7195,-94 401.7195,-94 401.7195,-100 395.7195,-106 389.7195,-106"/>
<text text-anchor="middle" x="342.7395" y="-83.8" font-family="Times,serif" font-size="14.00" fill="#000000">37: dropdown_2()</text>
</g>
<!-- node_0c5521f6 -->
<g id="node14" class="node">
<title>node_0c5521f6</title>
<path fill="#6db33f" stroke="#000000" d="M1232.1695,-230C1232.1695,-230 1112.9435,-230 1112.9435,-230 1106.9435,-230 1100.9435,-224 1100.9435,-218 1100.9435,-218 1100.9435,-206 1100.9435,-206 1100.9435,-200 1106.9435,-194 1112.9435,-194 1112.9435,-194 1232.1695,-194 1232.1695,-194 1238.1695,-194 1244.1695,-200 1244.1695,-206 1244.1695,-206 1244.1695,-218 1244.1695,-218 1244.1695,-224 1238.1695,-230 1232.1695,-230"/>
<text text-anchor="middle" x="1172.5565" y="-207.8" font-family="Times,serif" font-size="14.00" fill="#000000">12: intra_sector_data()</text>
</g>
<!-- node_285609cf -->
<g id="node15" class="node">
<title>node_285609cf</title>
<path fill="#6db33f" stroke="#000000" d="M1339.7112,-230C1339.7112,-230 1259.7622,-230 1259.7622,-230 1253.7622,-230 1247.7622,-224 1247.7622,-218 1247.7622,-218 1247.7622,-206 1247.7622,-206 1247.7622,-200 1253.7622,-194 1259.7622,-194 1259.7622,-194 1339.7112,-194 1339.7112,-194 1345.7112,-194 1351.7112,-200 1351.7112,-206 1351.7112,-206 1351.7112,-218 1351.7112,-218 1351.7112,-224 1345.7112,-230 1339.7112,-230"/>
<text text-anchor="middle" x="1299.7367" y="-207.8" font-family="Times,serif" font-size="14.00" fill="#000000">51: table_info()</text>
</g>
<!-- node_b96394eb -->
<g id="node16" class="node">
<title>node_b96394eb</title>
<path fill="#966f33" stroke="#000000" d="M1008.0432,-38C1008.0432,-38 947.9856,-38 947.9856,-38 941.9856,-38 935.9856,-32 935.9856,-26 935.9856,-26 935.9856,-14 935.9856,-14 935.9856,-8 941.9856,-2 947.9856,-2 947.9856,-2 1008.0432,-2 1008.0432,-2 1014.0432,-2 1020.0432,-8 1020.0432,-14 1020.0432,-14 1020.0432,-26 1020.0432,-26 1020.0432,-32 1014.0432,-38 1008.0432,-38"/>
<text text-anchor="middle" x="978.0144" y="-15.8" font-family="Times,serif" font-size="14.00" fill="#000000">0: (global)()</text>
</g>
<!-- node_b96394eb&#45;&gt;node_f7303ff1 -->
<g id="edge9" class="edge">
<title>node_b96394eb-&gt;node_f7303ff1</title>
<path fill="none" stroke="#009e73" stroke-width="2" d="M1003.223,-38.2228C1003.223,-38.2228 1003.223,-59.7269 1003.223,-59.7269"/>
<polygon fill="#009e73" stroke="#009e73" stroke-width="2" points="999.7231,-59.7269 1003.223,-69.7269 1006.7231,-59.727 999.7231,-59.7269"/>
</g>
<!-- node_b96394eb&#45;&gt;node_6e93b43f -->
<g id="edge10" class="edge">
<title>node_b96394eb-&gt;node_6e93b43f</title>
<path fill="none" stroke="#009e73" stroke-width="2" d="M969.6115,-38.1944C969.6115,-46.2782 969.6115,-54 969.6115,-54 969.6115,-54 256.7395,-54 256.7395,-54 256.7395,-54 256.7395,-59.8056 256.7395,-59.8056"/>
<polygon fill="#009e73" stroke="#009e73" stroke-width="2" points="253.2396,-59.8055 256.7395,-69.8056 260.2396,-59.8056 253.2396,-59.8055"/>
</g>
<!-- node_b96394eb&#45;&gt;node_21e7aaaf -->
<g id="edge11" class="edge">
<title>node_b96394eb-&gt;node_21e7aaaf</title>
<path fill="none" stroke="#009e73" stroke-width="2" d="M986.4173,-38.0555C986.4173,-49.439 986.4173,-62 986.4173,-62 986.4173,-62 366.6305,-62 366.6305,-62 366.6305,-62 366.6305,-62.7942 366.6305,-62.7942"/>
<polygon fill="#009e73" stroke="#009e73" stroke-width="2" points="363.1306,-59.9421 366.6305,-69.9421 370.1306,-59.9422 363.1306,-59.9421"/>
</g>
<!-- node_b96394eb&#45;&gt;node_0c5521f6 -->
<g id="edge12" class="edge">
<title>node_b96394eb-&gt;node_0c5521f6</title>
<path fill="none" stroke="#009e73" stroke-width="2" d="M1020.2458,-23C1068.3491,-23 1140.3632,-23 1140.3632,-23 1140.3632,-23 1140.3632,-183.8779 1140.3632,-183.8779"/>
<polygon fill="#009e73" stroke="#009e73" stroke-width="2" points="1136.8633,-183.8779 1140.3632,-193.8779 1143.8633,-183.8779 1136.8633,-183.8779"/>
</g>
<!-- node_b96394eb&#45;&gt;node_285609cf -->
<g id="edge13" class="edge">
<title>node_b96394eb-&gt;node_285609cf</title>
<path fill="none" stroke="#009e73" stroke-width="2" d="M1020.3488,-9C1110.2938,-9 1312.2757,-9 1312.2757,-9 1312.2757,-9 1312.2757,-183.9851 1312.2757,-183.9851"/>
<polygon fill="#009e73" stroke="#009e73" stroke-width="2" points="1308.7757,-183.9851 1312.2757,-193.9851 1315.7757,-183.9851 1308.7757,-183.9851"/>
</g>
<!-- node_e014b505 -->
<g id="node17" class="node">
<title>node_e014b505</title>
<path fill="#6db33f" stroke="#000000" d="M1261.2543,-106C1261.2543,-106 1191.5501,-106 1191.5501,-106 1185.5501,-106 1179.5501,-100 1179.5501,-94 1179.5501,-94 1179.5501,-82 1179.5501,-82 1179.5501,-76 1185.5501,-70 1191.5501,-70 1191.5501,-70 1261.2543,-70 1261.2543,-70 1267.2543,-70 1273.2543,-76 1273.2543,-82 1273.2543,-82 1273.2543,-94 1273.2543,-94 1273.2543,-100 1267.2543,-106 1261.2543,-106"/>
<text text-anchor="middle" x="1226.4022" y="-83.8" font-family="Times,serif" font-size="14.00" fill="#000000">40: carousel()</text>
</g>
<!-- node_b96394eb&#45;&gt;node_e014b505 -->
<g id="edge14" class="edge">
<title>node_b96394eb-&gt;node_e014b505</title>
<path fill="none" stroke="#009e73" stroke-width="2" d="M1020.15,-16C1091.0161,-16 1226.4022,-16 1226.4022,-16 1226.4022,-16 1226.4022,-59.8314 1226.4022,-59.8314"/>
<polygon fill="#009e73" stroke="#009e73" stroke-width="2" points="1222.9023,-59.8313 1226.4022,-69.8314 1229.9023,-59.8314 1222.9023,-59.8313"/>
</g>
<!-- node_81270758 -->
<g id="node18" class="node">
<title>node_81270758</title>
<path fill="#6db33f" stroke="#000000" d="M319.6732,-38C319.6732,-38 245.1088,-38 245.1088,-38 239.1088,-38 233.1088,-32 233.1088,-26 233.1088,-26 233.1088,-14 233.1088,-14 233.1088,-8 239.1088,-2 245.1088,-2 245.1088,-2 319.6732,-2 319.6732,-2 325.6732,-2 331.6732,-8 331.6732,-14 331.6732,-14 331.6732,-26 331.6732,-26 331.6732,-32 325.6732,-38 319.6732,-38"/>
<text text-anchor="middle" x="282.391" y="-15.8" font-family="Times,serif" font-size="14.00" fill="#000000">8: price_card()</text>
</g>
<!-- node_b96394eb&#45;&gt;node_81270758 -->
<g id="edge15" class="edge">
<title>node_b96394eb-&gt;node_81270758</title>
<path fill="none" stroke="#009e73" stroke-width="2" d="M952.8058,-38.0579C952.8058,-42.4945 952.8058,-46 952.8058,-46 952.8058,-46 307.891,-46 307.891,-46 307.891,-46 307.891,-45.2058 307.891,-45.2058"/>
<polygon fill="#009e73" stroke="#009e73" stroke-width="2" points="311.3911,-48.0578 307.891,-38.0579 304.3911,-48.0579 311.3911,-48.0578"/>
</g>
<!-- node_dc89610f -->
<g id="node19" class="node">
<title>node_dc89610f</title>
<path fill="#6db33f" stroke="#000000" d="M964.3687,-250C964.3687,-250 875.2099,-250 875.2099,-250 869.2099,-250 863.2099,-244 863.2099,-238 863.2099,-238 863.2099,-226 863.2099,-226 863.2099,-220 869.2099,-214 875.2099,-214 875.2099,-214 964.3687,-214 964.3687,-214 970.3687,-214 976.3687,-220 976.3687,-226 976.3687,-226 976.3687,-238 976.3687,-238 976.3687,-244 970.3687,-250 964.3687,-250"/>
<text text-anchor="middle" x="919.7893" y="-227.8" font-family="Times,serif" font-size="14.00" fill="#000000">20: ema_switch()</text>
</g>
<!-- node_b96394eb&#45;&gt;node_dc89610f -->
<g id="edge16" class="edge">
<title>node_b96394eb-&gt;node_dc89610f</title>
<path fill="none" stroke="#009e73" stroke-width="2" d="M935.9583,-23C902.2687,-23 860.6043,-23 860.6043,-23 860.6043,-23 860.6043,-232 860.6043,-232 860.6043,-232 860.8586,-232 860.8586,-232"/>
<polygon fill="#009e73" stroke="#009e73" stroke-width="2" points="853.1475,-235.5004 863.1474,-232 853.1472,-228.5004 853.1475,-235.5004"/>
</g>
<!-- node_a2efcdca -->
<g id="node20" class="node">
<title>node_a2efcdca</title>
<path fill="#6db33f" stroke="#000000" d="M961.5094,-210C961.5094,-210 876.1632,-210 876.1632,-210 870.1632,-210 864.1632,-204 864.1632,-198 864.1632,-198 864.1632,-186 864.1632,-186 864.1632,-180 870.1632,-174 876.1632,-174 876.1632,-174 961.5094,-174 961.5094,-174 967.5094,-174 973.5094,-180 973.5094,-186 973.5094,-186 973.5094,-198 973.5094,-198 973.5094,-204 967.5094,-210 961.5094,-210"/>
<text text-anchor="middle" x="918.8363" y="-187.8" font-family="Times,serif" font-size="14.00" fill="#000000">15: price_chart()</text>
</g>
<!-- node_b96394eb&#45;&gt;node_a2efcdca -->
<g id="edge17" class="edge">
<title>node_b96394eb-&gt;node_a2efcdca</title>
<path fill="none" stroke="#009e73" stroke-width="2" d="M935.7331,-30C910.5682,-30 883.5,-30 883.5,-30 883.5,-30 883.5,-163.7314 883.5,-163.7314"/>
<polygon fill="#009e73" stroke="#009e73" stroke-width="2" points="880.0001,-163.7314 883.5,-173.7314 887.0001,-163.7315 880.0001,-163.7314"/>
</g>
<!-- node_80fa33b8 -->
<g id="node21" class="node">
<title>node_80fa33b8</title>
<path fill="#6db33f" stroke="#000000" d="M1080.7131,-250C1080.7131,-250 992.0955,-250 992.0955,-250 986.0955,-250 980.0955,-244 980.0955,-238 980.0955,-238 980.0955,-226 980.0955,-226 980.0955,-220 986.0955,-214 992.0955,-214 992.0955,-214 1080.7131,-214 1080.7131,-214 1086.7131,-214 1092.7131,-220 1092.7131,-226 1092.7131,-226 1092.7131,-238 1092.7131,-238 1092.7131,-244 1086.7131,-250 1080.7131,-250"/>
<text text-anchor="middle" x="1036.4043" y="-227.8" font-family="Times,serif" font-size="14.00" fill="#000000">49: sma_switch()</text>
</g>
<!-- node_b96394eb&#45;&gt;node_80fa33b8 -->
<g id="edge18" class="edge">
<title>node_b96394eb-&gt;node_80fa33b8</title>
<path fill="none" stroke="#009e73" stroke-width="2" d="M1020.1066,-30C1045.6451,-30 1073.3479,-30 1073.3479,-30 1073.3479,-30 1073.3479,-203.7176 1073.3479,-203.7176"/>
<polygon fill="#009e73" stroke="#009e73" stroke-width="2" points="1069.848,-203.7175 1073.3479,-213.7176 1076.848,-203.7176 1069.848,-203.7175"/>
</g>
<!-- node_6af26ddb -->
<g id="node24" class="node">
<title>node_6af26ddb</title>
<path fill="#6db33f" stroke="#000000" d="M843.7193,-250C843.7193,-250 741.0935,-250 741.0935,-250 735.0935,-250 729.0935,-244 729.0935,-238 729.0935,-238 729.0935,-226 729.0935,-226 729.0935,-220 735.0935,-214 741.0935,-214 741.0935,-214 843.7193,-214 843.7193,-214 849.7193,-214 855.7193,-220 855.7193,-226 855.7193,-226 855.7193,-238 855.7193,-238 855.7193,-244 849.7193,-250 843.7193,-250"/>
<text text-anchor="middle" x="792.4064" y="-227.8" font-family="Times,serif" font-size="14.00" fill="#000000">10: update_button()</text>
</g>
<!-- node_b96394eb&#45;&gt;node_6af26ddb -->
<g id="edge19" class="edge">
<title>node_b96394eb-&gt;node_6af26ddb</title>
<path fill="none" stroke="#009e73" stroke-width="2" d="M935.8638,-9C890.1919,-9 823.7602,-9 823.7602,-9 823.7602,-9 823.7602,-203.751 823.7602,-203.751"/>
<polygon fill="#009e73" stroke="#009e73" stroke-width="2" points="820.2603,-203.7509 823.7602,-213.751 827.2603,-203.751 820.2603,-203.7509"/>
</g>
<!-- node_c18ae5ce -->
<g id="node25" class="node">
<title>node_c18ae5ce</title>
<path fill="#6db33f" stroke="#000000" d="M694.5303,-210C694.5303,-210 602.1563,-210 602.1563,-210 596.1563,-210 590.1563,-204 590.1563,-198 590.1563,-198 590.1563,-186 590.1563,-186 590.1563,-180 596.1563,-174 602.1563,-174 602.1563,-174 694.5303,-174 694.5303,-174 700.5303,-174 706.5303,-180 706.5303,-186 706.5303,-186 706.5303,-198 706.5303,-198 706.5303,-204 700.5303,-210 694.5303,-210"/>
<text text-anchor="middle" x="648.3433" y="-187.8" font-family="Times,serif" font-size="14.00" fill="#000000">37: update_state()</text>
</g>
<!-- node_b96394eb&#45;&gt;node_c18ae5ce -->
<g id="edge20" class="edge">
<title>node_b96394eb-&gt;node_c18ae5ce</title>
<path fill="none" stroke="#009e73" stroke-width="2" d="M935.7753,-16C901.2825,-16 858.2085,-16 858.2085,-16 858.2085,-16 858.2085,-192 858.2085,-192 858.2085,-192 716.8025,-192 716.8025,-192"/>
<polygon fill="#009e73" stroke="#009e73" stroke-width="2" points="716.8025,-188.5001 706.8025,-192 716.8024,-195.5001 716.8025,-188.5001"/>
</g>
<!-- node_b02c98f1 -->
<g id="node22" class="node">
<title>node_b02c98f1</title>
<path fill="#966f33" stroke="#000000" d="M708.0432,-106C708.0432,-106 647.9856,-106 647.9856,-106 641.9856,-106 635.9856,-100 635.9856,-94 635.9856,-94 635.9856,-82 635.9856,-82 635.9856,-76 641.9856,-70 647.9856,-70 647.9856,-70 708.0432,-70 708.0432,-70 714.0432,-70 720.0432,-76 720.0432,-82 720.0432,-82 720.0432,-94 720.0432,-94 720.0432,-100 714.0432,-106 708.0432,-106"/>
<text text-anchor="middle" x="678.0144" y="-83.8" font-family="Times,serif" font-size="14.00" fill="#000000">0: (global)()</text>
</g>
<!-- node_b02c98f1&#45;&gt;node_6cda2e4b -->
<g id="edge21" class="edge">
<title>node_b02c98f1-&gt;node_6cda2e4b</title>
<path fill="none" stroke="#e69f00" stroke-width="2" d="M720.272,-88C720.272,-88 720.6298,-88 720.6298,-88"/>
<polygon fill="#e69f00" stroke="#e69f00" stroke-width="2" points="713.8501,-91.5003 723.85,-88 713.8499,-84.5003 713.8501,-91.5003"/>
</g>
<!-- node_ce762036 -->
<g id="node26" class="node">
<title>node_ce762036</title>
<path fill="#966f33" stroke="#000000" d="M713.3338,-250C713.3338,-250 583.8886,-250 583.8886,-250 577.8886,-250 571.8886,-244 571.8886,-238 571.8886,-238 571.8886,-226 571.8886,-226 571.8886,-220 577.8886,-214 583.8886,-214 583.8886,-214 713.3338,-214 713.3338,-214 719.3338,-214 725.3338,-220 725.3338,-226 725.3338,-226 725.3338,-238 725.3338,-238 725.3338,-244 719.3338,-250 713.3338,-250"/>
<text text-anchor="middle" x="648.6112" y="-227.8" font-family="Times,serif" font-size="14.00" fill="#000000">52: update_ticker_data()</text>
</g>
<!-- node_ce762036&#45;&gt;node_6fbb1e8d -->
<g id="edge22" class="edge">
<title>node_ce762036-&gt;node_6fbb1e8d</title>
<path fill="none" stroke="#d55e00" stroke-width="2" d="M581,-213.9902C581,-189.5793 581,-149 581,-149 581,-149 302.8682,-149 302.8682,-149 302.8682,-149 302.8682,-170.9489 302.8682,-170.9489"/>
<polygon fill="#d55e00" stroke="#d55e00" stroke-width="2" points="299.3683,-170.9488 302.8682,-180.9489 306.3683,-170.9489 299.3683,-170.9488"/>
</g>
<!-- node_ce762036&#45;&gt;node_692fcc79 -->
<g id="edge25" class="edge">
<title>node_ce762036-&gt;node_692fcc79</title>
<path fill="none" stroke="#d55e00" stroke-width="2" d="M571.81,-239C571.81,-239 484.4025,-239 484.4025,-239"/>
<polygon fill="#d55e00" stroke="#d55e00" stroke-width="2" points="484.4025,-235.5001 474.4025,-239 484.4024,-242.5001 484.4025,-235.5001"/>
</g>
</g>
</svg>